<?xml version="1.0" encoding="UTF-8"?>
<svg version="1.1" xmlns="http://www.w3.org/2000/svg" width="720" height="720">
<path d="M0 0 C237.6 0 475.2 0 720 0 C720 237.6 720 475.2 720 720 C482.4 720 244.8 720 0 720 C0 482.4 0 244.8 0 0 Z " fill="#FEFEFE" transform="translate(0,0)"/>
<path d="M0 0 C3.79903504 3.19331477 7.48973122 6.48973122 11 10 C11.33 4.39 11.66 -1.22 12 -7 C20.25 -7 28.5 -7 37 -7 C37 57.68 37 122.36 37 189 C29.08 189 21.16 189 13 189 C12.67 163.59 12.34 138.18 12 112 C8.7 114.97 5.4 117.94 2 121 C-0.67531475 122.66498394 -3.06042373 124.06836037 -5.875 125.375 C-6.90778076 125.86613281 -6.90778076 125.86613281 -7.96142578 126.3671875 C-22.77164008 133.19578735 -39.05045845 134.49462236 -54.6328125 129.3125 C-66.54059743 124.67095042 -75.1690101 119.02408735 -84 110 C-84.73992187 109.29230469 -85.47984375 108.58460938 -86.2421875 107.85546875 C-99.00571443 94.86845594 -104.36751947 76.35274385 -104.23168945 58.60791016 C-103.82390471 38.78170593 -94.73941762 20.34872385 -80.53515625 6.6171875 C-58.19407265 -12.7385237 -24.68583673 -18.62847175 0 0 Z " fill="#25069D" transform="translate(407,294)"/>
<path d="M0 0 C15.26931323 11.11454154 26.01272001 27.08376474 29.51904297 45.83789062 C32.36191581 66.26346045 27.79204758 85.46086365 15.390625 101.99609375 C14.22582088 103.36983134 13.03785886 104.72425211 11.828125 106.05859375 C11.18617188 106.80367188 10.54421875 107.54875 9.8828125 108.31640625 C-0.24489595 119.34103353 -16.79924275 128.10943578 -31.87060547 129.265625 C-53.40642695 129.95928005 -70.96686015 126.93165732 -87.64453125 112.43359375 C-100.93771275 99.9417014 -111.73724594 83.40001093 -112.375 64.6171875 C-112.52184913 55.03925724 -112.4246257 46.18728121 -109.171875 37.05859375 C-108.8315625 36.07890625 -108.49125 35.09921875 -108.140625 34.08984375 C-100.9598632 15.26460335 -87.52336638 1.41588933 -69.44140625 -7.25 C-46.53679424 -16.9445102 -20.44647279 -13.58817098 0 0 Z " fill="#25079D" transform="translate(165.171875,294.94140625)"/>
<path d="M0 0 C8.91235234 8.25981017 14.95791421 19.69114087 16.02734375 31.7890625 C16.49739659 46.2284982 11.91285935 58.54073441 2.33984375 69.37890625 C-7.56403625 78.8029471 -20.40671657 82.6796288 -33.77734375 82.52734375 C-44.11330065 81.72164555 -52.38196073 77.80026997 -60.28515625 71.25390625 C-61.23841797 70.50367188 -61.23841797 70.50367188 -62.2109375 69.73828125 C-70.31507403 62.62245406 -75.70445351 50.22988073 -76.5859375 39.640625 C-76.63181241 25.15944546 -73.1782879 13.05422243 -62.91015625 2.37890625 C-45.05628909 -14.36843983 -19.5729023 -14.95570483 0 0 Z " fill="#FDFDFE" transform="translate(154.28515625,317.74609375)"/>
<path d="M0 0 C5.86848643 3.12715194 10.79684235 6.1702356 15.2578125 11.203125 C16.09119141 12.12351562 16.09119141 12.12351562 16.94140625 13.0625 C26.06198615 23.81105438 28.5757725 35.37867516 27.49707031 49.12158203 C26.17599361 60.61494937 19.86533337 70.6453018 11.2578125 78.203125 C10.731875 78.68265625 10.2059375 79.1621875 9.6640625 79.65625 C0.57081745 87.28532847 -10.50495382 90.06916035 -22.203125 89.62109375 C-34.2177915 88.20214307 -46.13944546 81.65065004 -53.7421875 72.203125 C-61.72662213 60.6972534 -64.85653893 49.21211439 -63.7421875 35.203125 C-61.41742824 23.99946594 -55.12729631 12.07348486 -45.7421875 5.203125 C-31.65542145 -2.74161961 -15.60891706 -6.94816998 0 0 Z " fill="#FDFDFE" transform="translate(391.7421875,311.796875)"/>
<path d="M0 0 C5.22029128 4.39057611 8.82332468 9.61788841 12.625 15.25 C12.955 6.67 13.285 -1.91 13.625 -10.75 C17.915 -10.75 22.205 -10.75 26.625 -10.75 C26.625 34.13 26.625 79.01 26.625 125.25 C22.335 125.25 18.045 125.25 13.625 125.25 C13.295 115.68 12.965 106.11 12.625 96.25 C9.655 99.88 6.685 103.51 3.625 107.25 C-4.073108 116.15565435 -14.95509758 122.36538797 -26.375 125.25 C-27.58285156 125.59546875 -28.79070312 125.9409375 -30.03515625 126.296875 C-47.46976428 130.60306175 -66.2406358 126.31747725 -81.375 117.25 C-84.59188502 115.12674919 -87.49251277 112.80672669 -90.375 110.25 C-91.2721875 109.45851563 -92.169375 108.66703125 -93.09375 107.8515625 C-105.53232373 96.19894261 -113.61056899 81.0509402 -114.49975586 63.83447266 C-115.11443858 43.93100778 -111.92035994 25.82136059 -97.9375 10.75 C-96.11781117 8.87564907 -94.25676784 7.06398082 -92.375 5.25 C-91.64539063 4.50105469 -90.91578125 3.75210937 -90.1640625 2.98046875 C-66.31069176 -20.20784518 -25.6377804 -19.03292539 0 0 Z M-88.25 17.9375 C-98.66362624 30.30368116 -103.1526547 45.3456932 -102.7890625 61.34375 C-101.13175575 76.97871932 -93.80747371 90.53881801 -82.375 101.25 C-67.51589279 112.7178395 -51.88288422 115.78760892 -33.6171875 113.9765625 C-31.44812647 113.55235499 -29.46040348 112.9821913 -27.375 112.25 C-26.446875 111.93160156 -25.51875 111.61320312 -24.5625 111.28515625 C-8.26854247 105.11257285 1.68951858 94.73584805 8.890625 79.2734375 C14.88736744 65.74575418 15.60571683 51.24599282 10.625 37.25 C4.19889927 21.13897822 -5.71045947 10.61066957 -21.375 3.25 C-24.34096436 2.02947366 -27.25753224 0.99992763 -30.375 0.25 C-31.08785156 0.07082031 -31.80070313 -0.10835938 -32.53515625 -0.29296875 C-54.12044045 -3.76680403 -72.96805244 2.24252683 -88.25 17.9375 Z " fill="#27099E" transform="translate(595.375,297.75)"/>
<path d="M0 0 C0.96719971 0.00644531 1.93439941 0.01289063 2.9309082 0.01953125 C16.05852719 0.35357295 25.0754275 5.28286029 35.25 13.5 C31.68691681 17.51434438 27.49266237 20.07625294 22.9375 22.8125 C22.20337891 23.27978516 21.46925781 23.74707031 20.71289062 24.22851562 C16.90879555 26.513673 14.93488854 27.52567465 10.39453125 27.35546875 C8.33004217 26.79382514 6.27972975 26.17657658 4.25 25.5 C-2.48382464 24.90931363 -7.88750792 26.03453321 -13.75 29.5 C-19.74744238 34.66530994 -24.00959391 40.73012903 -25.03609276 48.72947693 C-25.15552106 51.16943603 -25.18649645 53.59423257 -25.18237305 56.03710938 C-25.1925647 56.95511322 -25.20275635 57.87311707 -25.21325684 58.81893921 C-25.24324362 61.82727271 -25.25263087 64.83528705 -25.26171875 67.84375 C-25.27857604 69.93982998 -25.29672769 72.03589991 -25.31611633 74.13195801 C-25.36350824 79.62932191 -25.39338755 85.12664507 -25.41955566 90.62414551 C-25.44941574 96.24169965 -25.49592736 101.85911359 -25.54101562 107.4765625 C-25.62692591 118.48431757 -25.69278551 129.49205833 -25.75 140.5 C-33.67 140.5 -41.59 140.5 -49.75 140.5 C-49.84065882 128.07730137 -49.91392191 115.65482537 -49.95724869 103.2318697 C-49.97805178 97.46231528 -50.00623569 91.69300052 -50.05175781 85.92358398 C-50.09547603 80.34738523 -50.11919174 74.77141584 -50.12950897 69.19505882 C-50.13685393 67.07616762 -50.15119593 64.95728782 -50.17292023 62.83849525 C-50.35067567 44.7700259 -48.45122127 28.64467024 -35.5625 14.75 C-24.96398876 5.03271329 -14.33367825 -0.10012174 0 0 Z " fill="#26079E" transform="translate(269.75,282.5)"/>
<path d="M0 0 C4.29 0 8.58 0 13 0 C13 46.53 13 93.06 13 141 C8.71 141 4.42 141 0 141 C0 94.47 0 47.94 0 0 Z " fill="#2C0EA0" transform="translate(651,283)"/>
<path d="M0 0 C3.88265681 0.72799815 5.46228253 1.50231129 8 4.5625 C8.71534153 7.70654141 8.71534153 10.41845859 8 13.5625 C5.46228253 16.62268871 3.88265681 17.39700185 0 18.125 C-4.13607554 17.34948584 -5.54999553 15.94927089 -8 12.5625 C-8.625 9.0625 -8.625 9.0625 -8 5.5625 C-5.54999553 2.17572911 -4.13607554 0.77551416 0 0 Z " fill="#2A0CA0" transform="translate(658,251.4375)"/>
<path d="M0 0 C2.875 1.5 2.875 1.5 5 4 C5.81653107 7.75912419 5.45215366 10.89787544 4 14.4375 C1.39632488 16.47162119 -0.7166691 17.03524004 -3.9921875 17.2890625 C-6 17 -6 17 -9 14.5 C-11.39382283 10.99883056 -11.78006537 8.21235299 -11 4 C-7.6828559 0.19504059 -4.97314546 -0.82885758 0 0 Z " fill="#2A0C9F" transform="translate(475,407)"/>
</svg>
